<?xml version="1.0" encoding="UTF-8"?>
<svg width="228" height="117" xmlns="http://www.w3.org/2000/svg" viewBox="0 0 382.69 264.98">
  <path class="path" d="M179.72,204.9C136.28,217.93,13.99,247.31.66,183.77c-4.2-24.83,12.35-47.38,28.3-64.59C89.07,54.88,250.17-18.32,337.66,4.15c25.44,6.69,44.35,25.22,45.01,52.51.47,24.47-10.69,47.45-23.42,67.64-44.12,66.93-123.39,121.55-202.37,136.39-7.17,1.23-14.89,2.33-22.15,2.84-16.26,1.07-32.59,1.62-48.87,1.4-23.66-.45-47.59-1.83-70.5-8.23,0,0-.58-.17-.58-.17,0,0,.32-1.14.32-1.14,0,0,.58.15.58.15,37.31,9.1,76.35,7.53,114.4,5.23,5.59-.44,11.94-1.11,17.49-2,55.27-8.73,106.32-36.25,148.76-72.1,34.99-29.97,81.11-81.49,80.72-129.83-1.78-40.47-40.85-51.45-75.27-51.02-85.56.98-209.25,55.79-269.21,116.77-18.54,19.08-39.45,50.06-21.06,75.65,24.88,32.3,97.81,20.37,133.32,13.29,11.84-2.44,23.64-5.24,35.24-8.6,0,0,.53,1.71.53,1.71l-.86.26h0Z"/>
</svg>